PathFileType	4	(X/Y/Z)	Patient4_TMGait_0pt3_02_left_08.trc.trc
DataRate	CameraRate	NumFrames	NumMarkers	Units	OrigDataRate	OrigDataStartFrame	OrigNumFrames
51.094890510949	51.094890510949	4	33	mm	51.094890510949	71	       141
Frame#	Time	Sacral			L.Shoulder			Chest			R.Shoulder			Neck			R.ASIS			L.ASIS			R.Thigh.Superior			R.Thigh.Lateral			R.Thigh.Inferior			R.Patella			L.Thigh.Superior			L.Thigh.Lateral			L.Thigh.Inferior			L.Patella			L.Shank.Superior			L.Shank.Lateral			L.Shank.Inferior			R.Shank.Superior			R.Shank.Lateral			R.Shank.Inferior			R.Heel			R.Midfoot.Superior			R.Midfoot.Lateral			R.Toe			L.Heel			L.Midfoot.Lateral			L.Midfoot.Superior			L.Toe			L.Elbow			L.Wrist			R.Elbow			R.Wrist			
		X1	Y1	Z1	X2	Y2	Z2	X3	Y3	Z3	X4	Y4	Z4	X5	Y5	Z5	X6	Y6	Z6	X7	Y7	Z7	X8	Y8	Z8	X9	Y9	Z9	X10	Y10	Z10	X11	Y11	Z11	X12	Y12	Z12	X13	Y13	Z13	X14	Y14	Z14	X15	Y15	Z15	X16	Y16	Z16	X17	Y17	Z17	X18	Y18	Z18	X19	Y19	Z19	X20	Y20	Z20	X21	Y21	Z21	X22	Y22	Z22	X23	Y23	Z23	X24	Y24	Z24	X25	Y25	Z25	X26	Y26	Z26	X27	Y27	Z27	X28	Y28	Z28	X29	Y29	Z29	X30	Y30	Z30	X31	Y31	Z31	X32	Y32	Z32	X33	Y33	Z33	

71	16.870000000000	692.440611964038	998.775904550514	404.857306725037	901.895620013967	1432.300687287531	254.086040517594	967.741923667076	1364.481393293793	433.130776405215	850.596255293498	1436.895045849012	586.336661656427	853.946743483907	1494.754098977244	404.966843781109	903.834060286905	945.828093865001	559.042304090882	931.026558796479	961.176398870376	284.389598251962	983.924172072485	767.154583392347	536.707775449275	932.170918368965	647.317519303103	604.071377734672	1023.554210739661	607.161476315341	529.145999303522	1052.876445658547	519.391923089141	550.943192507017	955.971331973986	739.131399191749	323.594529297318	860.938044817753	625.940923602497	260.029557272100	928.794750091773	545.321985517311	333.894860107417	920.419393457444	476.343780979790	345.464526481334	887.069733763205	405.914954728220	338.231770314408	789.380156640054	297.150176508300	289.370064026032	825.004266238548	185.734063864328	368.146367496003	1022.945207997219	430.913669701662	561.027839764088	948.862414902345	327.577761809252	622.027873330669	1008.029386530617	231.210598268332	576.402630130556	891.995231649063	54.823649007954	544.173735896951	1057.441760128461	114.225856797214	593.138439849915	972.379641314693	44.806455923840	621.940854033844	1177.779304284593	69.110422827222	625.397101704223	686.354620424057	37.796688993575	416.058841519336	757.775569405324	35.091719567044	332.969870968925	842.464870880914	95.147760299580	358.697466733126	969.471098378019	44.893756829144	325.568210015244	1024.432812832154	1122.514229158753	108.577902145058	1269.580414085225	1037.822753034322	139.800249108075	687.356231342840	1130.665780692662	685.083515752103	655.457237352866	873.734640310059	714.462445401407	
72	16.889571428571	693.091111977469	998.514133174817	405.112896513933	905.014228776674	1432.128631261787	257.660979498561	968.604043246221	1363.833135363428	437.297072846378	849.712569685607	1436.279042088991	589.267616870193	855.330726485010	1494.252817813376	408.108770098235	902.870344610817	944.907449404717	561.493714242169	932.682982442133	960.708397428830	287.008012646499	981.563108796773	764.826353978360	540.240325401280	927.290212753812	645.271754052917	606.164924558158	1019.251377987484	604.660303040277	532.292125743764	1047.638915979154	518.343082981719	553.016586433544	954.939046146584	737.975358159825	325.689542406026	858.863570775757	625.885535852677	260.947952875396	925.245282806730	544.379748058501	334.859317543770	915.944348970988	475.516169714650	346.184952762598	882.567889984894	405.487791394972	338.741262921945	784.483329398447	297.177101445725	289.469828279129	819.516767964050	185.533886832759	368.217185506504	1020.192316946016	429.694994454799	562.719194786087	949.050605851002	324.324833749534	623.860222395640	1010.561931192239	229.626699594699	577.732143823561	898.472645584364	51.686338374587	545.778028674348	1063.282073630684	112.792534043742	593.428424418766	979.518038092976	42.436495504747	622.899274011058	1184.571489173468	69.323043505667	624.744195312093	680.441943684268	37.806267356600	416.024907011590	751.861494369726	35.050132637254	332.949006171506	836.606190113910	95.048246580307	358.700044444981	963.616003201941	44.626905418313	325.610126046894	1030.500091373741	1124.909618651588	110.699166735579	1278.170736705053	1049.380800140282	143.606765092416	681.780252457676	1132.122296230228	683.821862602986	648.003305872161	875.147042654140	712.123461406939	
73	16.909142857143	694.001522125360	997.971347354329	405.717549177740	907.940945815562	1431.707897473532	261.443928392099	969.519724421208	1363.023419687774	441.595044975271	848.978563443449	1435.425934750570	592.437776276824	856.678790901145	1493.527281672343	411.488204022598	902.240422935664	943.748121833461	564.140760753963	934.562955719869	960.034502989544	289.891655735605	979.501114713350	762.193993915257	543.912616014415	922.599681195542	642.914551655077	608.144220792042	1015.210799052729	601.939532996443	535.359455237926	1042.453020853505	516.784113017875	554.941877744991	954.455392349761	736.723752785559	327.976639344818	857.427528410450	625.653229622728	262.135885284712	922.430844560228	543.323614252989	336.069734021477	912.278802241433	474.517387397673	347.145073432709	878.699302639999	404.860510939021	339.483965270387	780.021879201419	297.218400642524	289.739976770968	814.255678153061	185.251087032198	368.378790133883	1017.034153786525	427.964875028765	564.277394822133	948.120390354572	321.071529259811	625.305975460360	1011.413085832663	227.751696508205	578.749542705086	902.226680028253	49.118114172947	546.851405490658	1066.655571259268	111.181920575023	593.541840404429	983.630307830568	40.530833074222	623.597992725806	1188.429887121472	68.659911648166	624.313567959861	674.533832298433	37.829368762205	415.980572337931	745.961945053670	35.017644449325	332.931865273355	830.771618900531	94.943189106350	358.727467217938	957.775067265746	44.315354218986	325.655034574293	1036.152612544043	1126.794873806394	113.300789479623	1285.947188154201	1060.117261774088	147.615033405016	678.133961573837	1132.375734972381	682.817549751134	643.328247826251	875.171958705466	709.879627496215	
74	16.928714285714	695.178993644317	997.265603712672	406.674572080067	910.718003893525	1431.139694401526	265.430777691027	970.522269578736	1362.139218498403	446.030127561953	848.425451346983	1434.427990351361	595.844707181020	858.011141116794	1492.668729316614	415.105595445149	901.958685619376	942.466667260795	566.986518878794	936.666745618054	959.221638259288	293.042597314769	977.799178071276	759.423763258832	547.645342163640	918.251358535466	640.398510984673	609.976075609614	1011.556553850045	599.175935803794	538.272410221202	1037.494911938699	514.864360804944	556.667267684542	954.473882092288	735.398994069123	330.454867376446	856.531524952412	625.296229946537	263.613721683393	920.242592897365	542.184273746773	337.542418567423	909.305604245645	473.387042037943	348.362405050021	875.354989081652	404.090166745697	340.465762892251	775.915544491555	297.311546064854	290.192181587821	809.182530602611	184.923152082573	368.629102499264	1013.652807555324	425.848612748039	565.647771880298	946.274843408104	317.879700489746	626.361675817718	1010.781298246306	225.620322317550	579.398284219316	903.437555086307	47.018828981578	547.394946460595	1067.759777424213	109.424567189299	593.413174193739	984.944758305460	39.038982904652	624.018941552016	1189.628959920572	67.225215885839	624.011657312195	668.631738769995	37.878848855585	415.918540138256	740.079781867233	35.002499679934	332.918552418715	824.962116201364	94.843269894129	358.771682865562	951.945912814280	43.961297706322	325.699036605158	1041.339034930686	1128.203024384158	116.377670122138	1292.890753538609	1069.959966028816	151.809267525711	676.290440095167	1131.551798740300	682.207217683419	641.274745681352	873.973677970814	707.909623042025	
